<svg version="1.1" xmlns="http://www.w3.org/2000/svg" viewBox="0 0 204.155627191941 364.234375" width="204.155627191941" height="364.234375" filter="invert(93%) hue-rotate(180deg)">
  <!-- svg-source:excalidraw -->
  
  <defs>
    <style class="style-fonts">
      @font-face {
        font-family: "Virgil";
        src: url("https://excalidraw.com/Virgil.woff2");
      }
      @font-face {
        font-family: "Cascadia";
        src: url("https://excalidraw.com/Cascadia.woff2");
      }
    </style>
  </defs>
  <g stroke-linecap="round"><g transform="translate(53.85221320272808 13.295786327817098) rotate(0 69.81903898921291 168.8214011721829)"><path d="M0 0 C-0.21 108.24, -0.42 216.47, -0.67 340.91 M0 0 C-0.18 93.99, -0.37 187.99, -0.67 340.91 M-0.67 340.91 C47.31 340.92, 95.29 340.93, 140.3 340.94 M-0.67 340.91 C32.58 340.92, 65.83 340.92, 140.3 340.94 M140.3 340.94 C139.16 260.28, 138.01 179.61, 135.41 -3.3 M140.3 340.94 C139.19 262.62, 138.08 184.31, 135.41 -3.3" stroke="#1e1e1e" stroke-width="1" fill="none"></path></g></g><mask></mask><g stroke-linecap="round"><g transform="translate(53.29046432030589 56.752024628364836) rotate(0 -20.960703510954488 -0.12786139035463862)"><path d="M0 0 C-16.2 -0.1, -32.4 -0.2, -41.92 -0.26 M0 0 C-10.34 -0.06, -20.67 -0.13, -41.92 -0.26" stroke="#1e1e1e" stroke-width="1" fill="none"></path></g></g><mask></mask><g stroke-linecap="round"><g transform="translate(52.167345941940994 120.287109375) rotate(0 -20.8984375 0.3640400961859882)"><path d="M0 0 C-9.27 0.16, -18.54 0.32, -41.8 0.73 M0 0 C-15.31 0.27, -30.61 0.53, -41.8 0.73" stroke="#1e1e1e" stroke-width="1" fill="none"></path></g></g><mask></mask><g stroke-linecap="round"><g transform="translate(52.694689691940994 179.908203125) rotate(0 -20.83850646445626 0.4193011809081213)"><path d="M0 0 C-16.51 0.33, -33.03 0.66, -41.68 0.84 M0 0 C-13.58 0.27, -27.16 0.55, -41.68 0.84" stroke="#1e1e1e" stroke-width="1" fill="none"></path></g></g><mask></mask><g stroke-linecap="round"><g transform="translate(52.952502191940994 249.216796875) rotate(0 -20.777018778638705 -0.25005843685283935)"><path d="M0 0 C-15.36 -0.18, -30.71 -0.37, -41.55 -0.5 M0 0 C-16.52 -0.2, -33.04 -0.4, -41.55 -0.5" stroke="#1e1e1e" stroke-width="1" fill="none"></path></g></g><mask></mask><g stroke-linecap="round" transform="translate(54.333445393090415 121.16254320759731) rotate(0 69.00630664033281 116.19182821529853)"><path d="M0 0 L138.01 0 L138.01 232.38 L0 232.38" stroke="none" stroke-width="0" fill="#ffec99"></path><path d="M0 0 C35.15 0, 70.29 0, 138.01 0 M0 0 C43.22 0, 86.44 0, 138.01 0 M138.01 0 C138.01 58.39, 138.01 116.77, 138.01 232.38 M138.01 0 C138.01 83.67, 138.01 167.33, 138.01 232.38 M138.01 232.38 C85.58 232.38, 33.14 232.38, 0 232.38 M138.01 232.38 C106.21 232.38, 74.41 232.38, 0 232.38 M0 232.38 C0 155.09, 0 77.79, 0 0 M0 232.38 C0 177.58, 0 122.77, 0 0" stroke="#f08c00" stroke-width="1" fill="none"></path></g><g stroke-linecap="round"><g transform="translate(51.55403755727741 302.7455081750486) rotate(0 -20.777018778638705 -0.25005843685283935)"><path d="M0 0 C-16.43 -0.2, -32.85 -0.4, -41.55 -0.5 M0 0 C-10.96 -0.13, -21.91 -0.26, -41.55 -0.5" stroke="#1e1e1e" stroke-width="1" fill="none"></path></g></g><mask></mask></svg>